<svg xmlns="http://www.w3.org/2000/svg" version="1.1" xmlns:xlink="http://www.w3.org/1999/xlink" xmlns:svgjs="http://svgjs.dev/svgjs" width="1936" height="1242" preserveAspectRatio="none" viewBox="0 0 1936 1242"><g mask="url(&quot;#SvgjsMask2365&quot;)" fill="none"><rect width="1936" height="1242" x="0" y="0" fill="#0e2a47"></rect><path d="M67.35 263.86L132.31 301.36L132.31 376.36L67.35 413.86L2.4 376.36L2.4 301.36zM67.35 488.86L132.31 526.36L132.31 601.36L67.35 638.86L2.4 601.36L2.4 526.36zM132.31 826.36L197.26 863.86L197.26 938.86L132.31 976.36L67.35 938.86L67.35 863.86zM327.17 38.86L392.12 76.36L392.12 151.36L327.17 188.86L262.21 151.36L262.21 76.36zM327.17 263.86L392.12 301.36L392.12 376.36L327.17 413.86L262.21 376.36L262.21 301.36zM327.17 488.86L392.12 526.36L392.12 601.36L327.17 638.86L262.21 601.36L262.21 526.36zM327.17 713.86L392.12 751.36L392.12 826.36L327.17 863.86L262.21 826.36L262.21 751.36zM457.08 38.86L522.03 76.36L522.03 151.36L457.08 188.86L392.12 151.36L392.12 76.36zM392.12 1051.36L457.08 1088.86L457.08 1163.86L392.12 1201.36L327.17 1163.86L327.17 1088.86zM586.98 488.86L651.94 526.36L651.94 601.36L586.98 638.86L522.03 601.36L522.03 526.36zM586.98 713.86L651.94 751.36L651.94 826.36L586.98 863.86L522.03 826.36L522.03 751.36zM716.89 938.86L781.85 976.36L781.85 1051.36L716.89 1088.86L651.94 1051.36L651.94 976.36zM781.84 826.36L846.8 863.86L846.8 938.86L781.84 976.36L716.89 938.86L716.89 863.86zM846.8 1163.86L911.75 1201.36L911.75 1276.36L846.8 1313.86L781.84 1276.36L781.84 1201.36zM976.71 38.86L1041.66 76.36L1041.66 151.36L976.71 188.86L911.75 151.36L911.75 76.36zM911.75 376.36L976.71 413.86L976.71 488.86L911.75 526.36L846.8 488.86L846.8 413.86zM976.71 713.86L1041.66 751.36L1041.66 826.36L976.71 863.86L911.75 826.36L911.75 751.36zM911.75 1051.36L976.71 1088.86L976.71 1163.86L911.75 1201.36L846.8 1163.86L846.8 1088.86zM1041.66 601.36L1106.61 638.86L1106.61 713.86L1041.66 751.36L976.71 713.86L976.71 638.86zM1106.61 1163.86L1171.57 1201.36L1171.57 1276.36L1106.61 1313.86L1041.66 1276.36L1041.66 1201.36zM1171.57 -73.64L1236.52 -36.14L1236.52 38.86L1171.57 76.36L1106.61 38.86L1106.61 -36.14zM1236.52 938.86L1301.47 976.36L1301.47 1051.36L1236.52 1088.86L1171.57 1051.36L1171.57 976.36zM1366.43 488.86L1431.38 526.36L1431.38 601.36L1366.43 638.86L1301.48 601.36L1301.48 526.36zM1366.43 1163.86L1431.38 1201.36L1431.38 1276.36L1366.43 1313.86L1301.48 1276.36L1301.48 1201.36zM1431.38 -73.64L1496.34 -36.14L1496.34 38.86L1431.38 76.36L1366.43 38.86L1366.43 -36.14zM1496.34 1163.86L1561.29 1201.36L1561.29 1276.36L1496.34 1313.86L1431.38 1276.36L1431.38 1201.36zM1561.29 826.36L1626.24 863.86L1626.24 938.86L1561.29 976.36L1496.34 938.86L1496.34 863.86zM1691.2 376.36L1756.15 413.86L1756.15 488.86L1691.2 526.36L1626.24 488.86L1626.24 413.86zM1886.06 263.86L1951.01 301.36L1951.01 376.36L1886.06 413.86L1821.11 376.36L1821.11 301.36zM1886.06 713.86L1951.01 751.36L1951.01 826.36L1886.06 863.86L1821.11 826.36L1821.11 751.36z" stroke="#03305d" stroke-width="2"></path><path d="M59.85 263.86 a7.5 7.5 0 1 0 15 0 a7.5 7.5 0 1 0 -15 0zM124.81 301.36 a7.5 7.5 0 1 0 15 0 a7.5 7.5 0 1 0 -15 0zM124.81 376.36 a7.5 7.5 0 1 0 15 0 a7.5 7.5 0 1 0 -15 0zM59.85 413.86 a7.5 7.5 0 1 0 15 0 a7.5 7.5 0 1 0 -15 0zM-5.1 376.36 a7.5 7.5 0 1 0 15 0 a7.5 7.5 0 1 0 -15 0zM-5.1 301.36 a7.5 7.5 0 1 0 15 0 a7.5 7.5 0 1 0 -15 0zM59.85 488.86 a7.5 7.5 0 1 0 15 0 a7.5 7.5 0 1 0 -15 0zM124.81 526.36 a7.5 7.5 0 1 0 15 0 a7.5 7.5 0 1 0 -15 0zM124.81 601.36 a7.5 7.5 0 1 0 15 0 a7.5 7.5 0 1 0 -15 0zM59.85 638.86 a7.5 7.5 0 1 0 15 0 a7.5 7.5 0 1 0 -15 0zM-5.1 601.36 a7.5 7.5 0 1 0 15 0 a7.5 7.5 0 1 0 -15 0zM-5.1 526.36 a7.5 7.5 0 1 0 15 0 a7.5 7.5 0 1 0 -15 0zM124.81 826.36 a7.5 7.5 0 1 0 15 0 a7.5 7.5 0 1 0 -15 0zM189.76 863.86 a7.5 7.5 0 1 0 15 0 a7.5 7.5 0 1 0 -15 0zM189.76 938.86 a7.5 7.5 0 1 0 15 0 a7.5 7.5 0 1 0 -15 0zM124.81 976.36 a7.5 7.5 0 1 0 15 0 a7.5 7.5 0 1 0 -15 0zM59.85 938.86 a7.5 7.5 0 1 0 15 0 a7.5 7.5 0 1 0 -15 0zM59.85 863.86 a7.5 7.5 0 1 0 15 0 a7.5 7.5 0 1 0 -15 0zM319.67 38.86 a7.5 7.5 0 1 0 15 0 a7.5 7.5 0 1 0 -15 0zM384.62 76.36 a7.5 7.5 0 1 0 15 0 a7.5 7.5 0 1 0 -15 0zM384.62 151.36 a7.5 7.5 0 1 0 15 0 a7.5 7.5 0 1 0 -15 0zM319.67 188.86 a7.5 7.5 0 1 0 15 0 a7.5 7.5 0 1 0 -15 0zM254.71 151.36 a7.5 7.5 0 1 0 15 0 a7.5 7.5 0 1 0 -15 0zM254.71 76.36 a7.5 7.5 0 1 0 15 0 a7.5 7.5 0 1 0 -15 0zM319.67 263.86 a7.5 7.5 0 1 0 15 0 a7.5 7.5 0 1 0 -15 0zM384.62 301.36 a7.5 7.5 0 1 0 15 0 a7.5 7.5 0 1 0 -15 0zM384.62 376.36 a7.5 7.5 0 1 0 15 0 a7.5 7.5 0 1 0 -15 0zM319.67 413.86 a7.5 7.5 0 1 0 15 0 a7.5 7.5 0 1 0 -15 0zM254.71 376.36 a7.5 7.5 0 1 0 15 0 a7.5 7.5 0 1 0 -15 0zM254.71 301.36 a7.5 7.5 0 1 0 15 0 a7.5 7.5 0 1 0 -15 0zM319.67 488.86 a7.5 7.5 0 1 0 15 0 a7.5 7.5 0 1 0 -15 0zM384.62 526.36 a7.5 7.5 0 1 0 15 0 a7.5 7.5 0 1 0 -15 0zM384.62 601.36 a7.5 7.5 0 1 0 15 0 a7.5 7.5 0 1 0 -15 0zM319.67 638.86 a7.5 7.5 0 1 0 15 0 a7.5 7.5 0 1 0 -15 0zM254.71 601.36 a7.5 7.5 0 1 0 15 0 a7.5 7.5 0 1 0 -15 0zM254.71 526.36 a7.5 7.5 0 1 0 15 0 a7.5 7.5 0 1 0 -15 0zM319.67 713.86 a7.5 7.5 0 1 0 15 0 a7.5 7.5 0 1 0 -15 0zM384.62 751.36 a7.5 7.5 0 1 0 15 0 a7.5 7.5 0 1 0 -15 0zM384.62 826.36 a7.5 7.5 0 1 0 15 0 a7.5 7.5 0 1 0 -15 0zM319.67 863.86 a7.5 7.5 0 1 0 15 0 a7.5 7.5 0 1 0 -15 0zM254.71 826.36 a7.5 7.5 0 1 0 15 0 a7.5 7.5 0 1 0 -15 0zM254.71 751.36 a7.5 7.5 0 1 0 15 0 a7.5 7.5 0 1 0 -15 0zM449.58 38.86 a7.5 7.5 0 1 0 15 0 a7.5 7.5 0 1 0 -15 0zM514.53 76.36 a7.5 7.5 0 1 0 15 0 a7.5 7.5 0 1 0 -15 0zM514.53 151.36 a7.5 7.5 0 1 0 15 0 a7.5 7.5 0 1 0 -15 0zM449.58 188.86 a7.5 7.5 0 1 0 15 0 a7.5 7.5 0 1 0 -15 0zM384.62 1051.36 a7.5 7.5 0 1 0 15 0 a7.5 7.5 0 1 0 -15 0zM449.58 1088.86 a7.5 7.5 0 1 0 15 0 a7.5 7.5 0 1 0 -15 0zM449.58 1163.86 a7.5 7.5 0 1 0 15 0 a7.5 7.5 0 1 0 -15 0zM384.62 1201.36 a7.5 7.5 0 1 0 15 0 a7.5 7.5 0 1 0 -15 0zM319.67 1163.86 a7.5 7.5 0 1 0 15 0 a7.5 7.5 0 1 0 -15 0zM319.67 1088.86 a7.5 7.5 0 1 0 15 0 a7.5 7.5 0 1 0 -15 0zM579.48 488.86 a7.5 7.5 0 1 0 15 0 a7.5 7.5 0 1 0 -15 0zM644.44 526.36 a7.5 7.5 0 1 0 15 0 a7.5 7.5 0 1 0 -15 0zM644.44 601.36 a7.5 7.5 0 1 0 15 0 a7.5 7.5 0 1 0 -15 0zM579.48 638.86 a7.5 7.5 0 1 0 15 0 a7.5 7.5 0 1 0 -15 0zM514.53 601.36 a7.5 7.5 0 1 0 15 0 a7.5 7.5 0 1 0 -15 0zM514.53 526.36 a7.5 7.5 0 1 0 15 0 a7.5 7.5 0 1 0 -15 0zM579.48 713.86 a7.5 7.5 0 1 0 15 0 a7.5 7.5 0 1 0 -15 0zM644.44 751.36 a7.5 7.5 0 1 0 15 0 a7.5 7.5 0 1 0 -15 0zM644.44 826.36 a7.5 7.5 0 1 0 15 0 a7.5 7.5 0 1 0 -15 0zM579.48 863.86 a7.5 7.5 0 1 0 15 0 a7.5 7.5 0 1 0 -15 0zM514.53 826.36 a7.5 7.5 0 1 0 15 0 a7.5 7.5 0 1 0 -15 0zM514.53 751.36 a7.5 7.5 0 1 0 15 0 a7.5 7.5 0 1 0 -15 0zM709.39 938.86 a7.5 7.5 0 1 0 15 0 a7.5 7.5 0 1 0 -15 0zM774.35 976.36 a7.5 7.5 0 1 0 15 0 a7.5 7.5 0 1 0 -15 0zM774.35 1051.36 a7.5 7.5 0 1 0 15 0 a7.5 7.5 0 1 0 -15 0zM709.39 1088.86 a7.5 7.5 0 1 0 15 0 a7.5 7.5 0 1 0 -15 0zM644.44 1051.36 a7.5 7.5 0 1 0 15 0 a7.5 7.5 0 1 0 -15 0zM644.44 976.36 a7.5 7.5 0 1 0 15 0 a7.5 7.5 0 1 0 -15 0zM774.34 826.36 a7.5 7.5 0 1 0 15 0 a7.5 7.5 0 1 0 -15 0zM839.3 863.86 a7.5 7.5 0 1 0 15 0 a7.5 7.5 0 1 0 -15 0zM839.3 938.86 a7.5 7.5 0 1 0 15 0 a7.5 7.5 0 1 0 -15 0zM774.34 976.36 a7.5 7.5 0 1 0 15 0 a7.5 7.5 0 1 0 -15 0zM709.39 863.86 a7.5 7.5 0 1 0 15 0 a7.5 7.5 0 1 0 -15 0zM839.3 1163.86 a7.5 7.5 0 1 0 15 0 a7.5 7.5 0 1 0 -15 0zM904.25 1201.36 a7.5 7.5 0 1 0 15 0 a7.5 7.5 0 1 0 -15 0zM904.25 1276.36 a7.5 7.5 0 1 0 15 0 a7.5 7.5 0 1 0 -15 0zM839.3 1313.86 a7.5 7.5 0 1 0 15 0 a7.5 7.5 0 1 0 -15 0zM774.34 1276.36 a7.5 7.5 0 1 0 15 0 a7.5 7.5 0 1 0 -15 0zM774.34 1201.36 a7.5 7.5 0 1 0 15 0 a7.5 7.5 0 1 0 -15 0zM969.21 38.86 a7.5 7.5 0 1 0 15 0 a7.5 7.5 0 1 0 -15 0zM1034.16 76.36 a7.5 7.5 0 1 0 15 0 a7.5 7.5 0 1 0 -15 0zM1034.16 151.36 a7.5 7.5 0 1 0 15 0 a7.5 7.5 0 1 0 -15 0zM969.21 188.86 a7.5 7.5 0 1 0 15 0 a7.5 7.5 0 1 0 -15 0zM904.25 151.36 a7.5 7.5 0 1 0 15 0 a7.5 7.5 0 1 0 -15 0zM904.25 76.36 a7.5 7.5 0 1 0 15 0 a7.5 7.5 0 1 0 -15 0zM904.25 376.36 a7.5 7.5 0 1 0 15 0 a7.5 7.5 0 1 0 -15 0zM969.21 413.86 a7.5 7.5 0 1 0 15 0 a7.5 7.5 0 1 0 -15 0zM969.21 488.86 a7.5 7.5 0 1 0 15 0 a7.5 7.5 0 1 0 -15 0zM904.25 526.36 a7.5 7.5 0 1 0 15 0 a7.5 7.5 0 1 0 -15 0zM839.3 488.86 a7.5 7.5 0 1 0 15 0 a7.5 7.5 0 1 0 -15 0zM839.3 413.86 a7.5 7.5 0 1 0 15 0 a7.5 7.5 0 1 0 -15 0zM969.21 713.86 a7.5 7.5 0 1 0 15 0 a7.5 7.5 0 1 0 -15 0zM1034.16 751.36 a7.5 7.5 0 1 0 15 0 a7.5 7.5 0 1 0 -15 0zM1034.16 826.36 a7.5 7.5 0 1 0 15 0 a7.5 7.5 0 1 0 -15 0zM969.21 863.86 a7.5 7.5 0 1 0 15 0 a7.5 7.5 0 1 0 -15 0zM904.25 826.36 a7.5 7.5 0 1 0 15 0 a7.5 7.5 0 1 0 -15 0zM904.25 751.36 a7.5 7.5 0 1 0 15 0 a7.5 7.5 0 1 0 -15 0zM904.25 1051.36 a7.5 7.5 0 1 0 15 0 a7.5 7.5 0 1 0 -15 0zM969.21 1088.86 a7.5 7.5 0 1 0 15 0 a7.5 7.5 0 1 0 -15 0zM969.21 1163.86 a7.5 7.5 0 1 0 15 0 a7.5 7.5 0 1 0 -15 0zM839.3 1088.86 a7.5 7.5 0 1 0 15 0 a7.5 7.5 0 1 0 -15 0zM1034.16 601.36 a7.5 7.5 0 1 0 15 0 a7.5 7.5 0 1 0 -15 0zM1099.11 638.86 a7.5 7.5 0 1 0 15 0 a7.5 7.5 0 1 0 -15 0zM1099.11 713.86 a7.5 7.5 0 1 0 15 0 a7.5 7.5 0 1 0 -15 0zM969.21 638.86 a7.5 7.5 0 1 0 15 0 a7.5 7.5 0 1 0 -15 0zM1099.11 1163.86 a7.5 7.5 0 1 0 15 0 a7.5 7.5 0 1 0 -15 0zM1164.07 1201.36 a7.5 7.5 0 1 0 15 0 a7.5 7.5 0 1 0 -15 0zM1164.07 1276.36 a7.5 7.5 0 1 0 15 0 a7.5 7.5 0 1 0 -15 0zM1099.11 1313.86 a7.5 7.5 0 1 0 15 0 a7.5 7.5 0 1 0 -15 0zM1034.16 1276.36 a7.5 7.5 0 1 0 15 0 a7.5 7.5 0 1 0 -15 0zM1034.16 1201.36 a7.5 7.5 0 1 0 15 0 a7.5 7.5 0 1 0 -15 0zM1164.07 -73.64 a7.5 7.5 0 1 0 15 0 a7.5 7.5 0 1 0 -15 0zM1229.02 -36.14 a7.5 7.5 0 1 0 15 0 a7.5 7.5 0 1 0 -15 0zM1229.02 38.86 a7.5 7.5 0 1 0 15 0 a7.5 7.5 0 1 0 -15 0zM1164.07 76.36 a7.5 7.5 0 1 0 15 0 a7.5 7.5 0 1 0 -15 0zM1099.11 38.86 a7.5 7.5 0 1 0 15 0 a7.5 7.5 0 1 0 -15 0zM1099.11 -36.14 a7.5 7.5 0 1 0 15 0 a7.5 7.5 0 1 0 -15 0zM1229.02 938.86 a7.5 7.5 0 1 0 15 0 a7.5 7.5 0 1 0 -15 0zM1293.97 976.36 a7.5 7.5 0 1 0 15 0 a7.5 7.5 0 1 0 -15 0zM1293.97 1051.36 a7.5 7.5 0 1 0 15 0 a7.5 7.5 0 1 0 -15 0zM1229.02 1088.86 a7.5 7.5 0 1 0 15 0 a7.5 7.5 0 1 0 -15 0zM1164.07 1051.36 a7.5 7.5 0 1 0 15 0 a7.5 7.5 0 1 0 -15 0zM1164.07 976.36 a7.5 7.5 0 1 0 15 0 a7.5 7.5 0 1 0 -15 0zM1358.93 488.86 a7.5 7.5 0 1 0 15 0 a7.5 7.5 0 1 0 -15 0zM1423.88 526.36 a7.5 7.5 0 1 0 15 0 a7.5 7.5 0 1 0 -15 0zM1423.88 601.36 a7.5 7.5 0 1 0 15 0 a7.5 7.5 0 1 0 -15 0zM1358.93 638.86 a7.5 7.5 0 1 0 15 0 a7.5 7.5 0 1 0 -15 0zM1293.98 601.36 a7.5 7.5 0 1 0 15 0 a7.5 7.5 0 1 0 -15 0zM1293.98 526.36 a7.5 7.5 0 1 0 15 0 a7.5 7.5 0 1 0 -15 0zM1358.93 1163.86 a7.5 7.5 0 1 0 15 0 a7.5 7.5 0 1 0 -15 0zM1423.88 1201.36 a7.5 7.5 0 1 0 15 0 a7.5 7.5 0 1 0 -15 0zM1423.88 1276.36 a7.5 7.5 0 1 0 15 0 a7.5 7.5 0 1 0 -15 0zM1358.93 1313.86 a7.5 7.5 0 1 0 15 0 a7.5 7.5 0 1 0 -15 0zM1293.98 1276.36 a7.5 7.5 0 1 0 15 0 a7.5 7.5 0 1 0 -15 0zM1293.98 1201.36 a7.5 7.5 0 1 0 15 0 a7.5 7.5 0 1 0 -15 0zM1423.88 -73.64 a7.5 7.5 0 1 0 15 0 a7.5 7.5 0 1 0 -15 0zM1488.84 -36.14 a7.5 7.5 0 1 0 15 0 a7.5 7.5 0 1 0 -15 0zM1488.84 38.86 a7.5 7.5 0 1 0 15 0 a7.5 7.5 0 1 0 -15 0zM1423.88 76.36 a7.5 7.5 0 1 0 15 0 a7.5 7.5 0 1 0 -15 0zM1358.93 38.86 a7.5 7.5 0 1 0 15 0 a7.5 7.5 0 1 0 -15 0zM1358.93 -36.14 a7.5 7.5 0 1 0 15 0 a7.5 7.5 0 1 0 -15 0zM1488.84 1163.86 a7.5 7.5 0 1 0 15 0 a7.5 7.5 0 1 0 -15 0zM1553.79 1201.36 a7.5 7.5 0 1 0 15 0 a7.5 7.5 0 1 0 -15 0zM1553.79 1276.36 a7.5 7.5 0 1 0 15 0 a7.5 7.5 0 1 0 -15 0zM1488.84 1313.86 a7.5 7.5 0 1 0 15 0 a7.5 7.5 0 1 0 -15 0zM1553.79 826.36 a7.5 7.5 0 1 0 15 0 a7.5 7.5 0 1 0 -15 0zM1618.74 863.86 a7.5 7.5 0 1 0 15 0 a7.5 7.5 0 1 0 -15 0zM1618.74 938.86 a7.5 7.5 0 1 0 15 0 a7.5 7.5 0 1 0 -15 0zM1553.79 976.36 a7.5 7.5 0 1 0 15 0 a7.5 7.5 0 1 0 -15 0zM1488.84 938.86 a7.5 7.5 0 1 0 15 0 a7.5 7.5 0 1 0 -15 0zM1488.84 863.86 a7.5 7.5 0 1 0 15 0 a7.5 7.5 0 1 0 -15 0zM1683.7 376.36 a7.5 7.5 0 1 0 15 0 a7.5 7.5 0 1 0 -15 0zM1748.65 413.86 a7.5 7.5 0 1 0 15 0 a7.5 7.5 0 1 0 -15 0zM1748.65 488.86 a7.5 7.5 0 1 0 15 0 a7.5 7.5 0 1 0 -15 0zM1683.7 526.36 a7.5 7.5 0 1 0 15 0 a7.5 7.5 0 1 0 -15 0zM1618.74 488.86 a7.5 7.5 0 1 0 15 0 a7.5 7.5 0 1 0 -15 0zM1618.74 413.86 a7.5 7.5 0 1 0 15 0 a7.5 7.5 0 1 0 -15 0zM1878.56 263.86 a7.5 7.5 0 1 0 15 0 a7.5 7.5 0 1 0 -15 0zM1943.51 301.36 a7.5 7.5 0 1 0 15 0 a7.5 7.5 0 1 0 -15 0zM1943.51 376.36 a7.5 7.5 0 1 0 15 0 a7.5 7.5 0 1 0 -15 0zM1878.56 413.86 a7.5 7.5 0 1 0 15 0 a7.5 7.5 0 1 0 -15 0zM1813.61 376.36 a7.5 7.5 0 1 0 15 0 a7.5 7.5 0 1 0 -15 0zM1813.61 301.36 a7.5 7.5 0 1 0 15 0 a7.5 7.5 0 1 0 -15 0zM1878.56 713.86 a7.5 7.5 0 1 0 15 0 a7.5 7.5 0 1 0 -15 0zM1943.51 751.36 a7.5 7.5 0 1 0 15 0 a7.5 7.5 0 1 0 -15 0zM1943.51 826.36 a7.5 7.5 0 1 0 15 0 a7.5 7.5 0 1 0 -15 0zM1878.56 863.86 a7.5 7.5 0 1 0 15 0 a7.5 7.5 0 1 0 -15 0zM1813.61 826.36 a7.5 7.5 0 1 0 15 0 a7.5 7.5 0 1 0 -15 0zM1813.61 751.36 a7.5 7.5 0 1 0 15 0 a7.5 7.5 0 1 0 -15 0z" fill="#03305d"></path><path d="M12.21 -18.4L44.25 0.1L44.25 37.1L12.21 55.6L-19.83 37.1L-19.83 0.1zM12.21 536.6L44.25 555.1L44.25 592.1L12.21 610.6L-19.83 592.1L-19.83 555.1zM12.21 758.6L44.25 777.1L44.25 814.1L12.21 832.6L-19.83 814.1L-19.83 777.1zM12.21 869.6L44.25 888.1L44.25 925.1L12.21 943.6L-19.83 925.1L-19.83 888.1zM12.21 1202.6L44.25 1221.1L44.25 1258.1L12.21 1276.6L-19.83 1258.1L-19.83 1221.1zM108.34 148.1L140.39 166.6L140.39 203.6L108.34 222.1L76.3 203.6L76.3 166.6zM76.3 314.6L108.34 333.1L108.34 370.1L76.3 388.6L44.25 370.1L44.25 333.1zM76.3 425.6L108.34 444.1L108.34 481.1L76.3 499.6L44.25 481.1L44.25 444.1zM108.34 481.1L140.39 499.6L140.39 536.6L108.34 555.1L76.3 536.6L76.3 499.6zM76.3 536.6L108.34 555.1L108.34 592.1L76.3 610.6L44.25 592.1L44.25 555.1zM108.34 592.1L140.39 610.6L140.39 647.6L108.34 666.1L76.3 647.6L76.3 610.6zM76.3 647.6L108.34 666.1L108.34 703.1L76.3 721.6L44.25 703.1L44.25 666.1zM76.3 758.6L108.34 777.1L108.34 814.1L76.3 832.6L44.25 814.1L44.25 777.1zM108.34 925.1L140.39 943.6L140.39 980.6L108.34 999.1L76.3 980.6L76.3 943.6zM76.3 980.6L108.34 999.1L108.34 1036.1L76.3 1054.6L44.25 1036.1L44.25 999.1zM108.34 1147.1L140.39 1165.6L140.39 1202.6L108.34 1221.1L76.3 1202.6L76.3 1165.6zM140.39 314.6L172.43 333.1L172.43 370.1L140.39 388.6L108.34 370.1L108.34 333.1zM140.39 536.6L172.43 555.1L172.43 592.1L140.39 610.6L108.34 592.1L108.34 555.1zM140.39 758.6L172.43 777.1L172.43 814.1L140.39 832.6L108.34 814.1L108.34 777.1zM172.43 1036.1L204.47 1054.6L204.47 1091.6L172.43 1110.1L140.39 1091.6L140.39 1054.6zM140.39 1091.6L172.43 1110.1L172.43 1147.1L140.39 1165.6L108.34 1147.1L108.34 1110.1zM204.47 92.6L236.52 111.1L236.52 148.1L204.47 166.6L172.43 148.1L172.43 111.1zM236.52 148.1L268.56 166.6L268.56 203.6L236.52 222.1L204.47 203.6L204.47 166.6zM204.47 203.6L236.52 222.1L236.52 259.1L204.47 277.6L172.43 259.1L172.43 222.1zM236.52 259.1L268.56 277.6L268.56 314.6L236.52 333.1L204.47 314.6L204.47 277.6zM204.47 536.6L236.52 555.1L236.52 592.1L204.47 610.6L172.43 592.1L172.43 555.1zM204.47 647.6L236.52 666.1L236.52 703.1L204.47 721.6L172.43 703.1L172.43 666.1zM236.52 814.1L268.56 832.6L268.56 869.6L236.52 888.1L204.47 869.6L204.47 832.6zM204.47 1202.6L236.52 1221.1L236.52 1258.1L204.47 1276.6L172.43 1258.1L172.43 1221.1zM300.6 148.1L332.65 166.6L332.65 203.6L300.6 222.1L268.56 203.6L268.56 166.6zM300.6 481.1L332.65 499.6L332.65 536.6L300.6 555.1L268.56 536.6L268.56 499.6zM300.6 592.1L332.65 610.6L332.65 647.6L300.6 666.1L268.56 647.6L268.56 610.6zM268.56 758.6L300.6 777.1L300.6 814.1L268.56 832.6L236.52 814.1L236.52 777.1zM268.56 1091.6L300.6 1110.1L300.6 1147.1L268.56 1165.6L236.52 1147.1L236.52 1110.1zM300.6 1147.1L332.65 1165.6L332.65 1202.6L300.6 1221.1L268.56 1202.6L268.56 1165.6zM268.56 1202.6L300.6 1221.1L300.6 1258.1L268.56 1276.6L236.52 1258.1L236.52 1221.1zM332.65 92.6L364.69 111.1L364.69 148.1L332.65 166.6L300.6 148.1L300.6 111.1zM332.65 203.6L364.69 222.1L364.69 259.1L332.65 277.6L300.6 259.1L300.6 222.1zM364.69 259.1L396.74 277.6L396.74 314.6L364.69 333.1L332.65 314.6L332.65 277.6zM364.69 370.1L396.74 388.6L396.74 425.6L364.69 444.1L332.65 425.6L332.65 388.6zM364.69 481.1L396.74 499.6L396.74 536.6L364.69 555.1L332.65 536.6L332.65 499.6zM332.65 536.6L364.69 555.1L364.69 592.1L332.65 610.6L300.6 592.1L300.6 555.1zM364.69 814.1L396.74 832.6L396.74 869.6L364.69 888.1L332.65 869.6L332.65 832.6zM332.65 869.6L364.69 888.1L364.69 925.1L332.65 943.6L300.6 925.1L300.6 888.1zM332.65 1091.6L364.69 1110.1L364.69 1147.1L332.65 1165.6L300.6 1147.1L300.6 1110.1zM332.65 1202.6L364.69 1221.1L364.69 1258.1L332.65 1276.6L300.6 1258.1L300.6 1221.1zM396.74 -18.4L428.78 0.1L428.78 37.1L396.74 55.6L364.69 37.1L364.69 0.1zM428.78 37.1L460.82 55.6L460.82 92.6L428.78 111.1L396.74 92.6L396.74 55.6zM428.78 148.1L460.82 166.6L460.82 203.6L428.78 222.1L396.74 203.6L396.74 166.6zM396.74 425.6L428.78 444.1L428.78 481.1L396.74 499.6L364.69 481.1L364.69 444.1zM428.78 481.1L460.82 499.6L460.82 536.6L428.78 555.1L396.74 536.6L396.74 499.6zM428.78 1036.1L460.82 1054.6L460.82 1091.6L428.78 1110.1L396.74 1091.6L396.74 1054.6zM428.78 1147.1L460.82 1165.6L460.82 1202.6L428.78 1221.1L396.74 1202.6L396.74 1165.6zM396.74 1202.6L428.78 1221.1L428.78 1258.1L396.74 1276.6L364.69 1258.1L364.69 1221.1zM460.82 -18.4L492.87 0.1L492.87 37.1L460.82 55.6L428.78 37.1L428.78 0.1zM460.82 92.6L492.87 111.1L492.87 148.1L460.82 166.6L428.78 148.1L428.78 111.1zM492.87 259.1L524.91 277.6L524.91 314.6L492.87 333.1L460.82 314.6L460.82 277.6zM492.87 370.1L524.91 388.6L524.91 425.6L492.87 444.1L460.82 425.6L460.82 388.6zM460.82 536.6L492.87 555.1L492.87 592.1L460.82 610.6L428.78 592.1L428.78 555.1zM492.87 703.1L524.91 721.6L524.91 758.6L492.87 777.1L460.82 758.6L460.82 721.6zM492.87 925.1L524.91 943.6L524.91 980.6L492.87 999.1L460.82 980.6L460.82 943.6zM460.82 980.6L492.87 999.1L492.87 1036.1L460.82 1054.6L428.78 1036.1L428.78 999.1zM492.87 1036.1L524.91 1054.6L524.91 1091.6L492.87 1110.1L460.82 1091.6L460.82 1054.6zM524.91 -18.4L556.96 0.1L556.96 37.1L524.91 55.6L492.87 37.1L492.87 0.1zM556.96 37.1L589 55.6L589 92.6L556.96 111.1L524.91 92.6L524.91 55.6zM556.96 148.1L589 166.6L589 203.6L556.96 222.1L524.91 203.6L524.91 166.6zM524.91 203.6L556.96 222.1L556.96 259.1L524.91 277.6L492.87 259.1L492.87 222.1zM524.91 425.6L556.96 444.1L556.96 481.1L524.91 499.6L492.87 481.1L492.87 444.1zM524.91 647.6L556.96 666.1L556.96 703.1L524.91 721.6L492.87 703.1L492.87 666.1zM556.96 703.1L589 721.6L589 758.6L556.96 777.1L524.91 758.6L524.91 721.6zM524.91 758.6L556.96 777.1L556.96 814.1L524.91 832.6L492.87 814.1L492.87 777.1zM556.96 814.1L589 832.6L589 869.6L556.96 888.1L524.91 869.6L524.91 832.6zM524.91 980.6L556.96 999.1L556.96 1036.1L524.91 1054.6L492.87 1036.1L492.87 999.1zM524.91 1091.6L556.96 1110.1L556.96 1147.1L524.91 1165.6L492.87 1147.1L492.87 1110.1zM524.91 1202.6L556.96 1221.1L556.96 1258.1L524.91 1276.6L492.87 1258.1L492.87 1221.1zM621.04 37.1L653.09 55.6L653.09 92.6L621.04 111.1L589 92.6L589 55.6zM589 92.6L621.04 111.1L621.04 148.1L589 166.6L556.96 148.1L556.96 111.1zM621.04 148.1L653.09 166.6L653.09 203.6L621.04 222.1L589 203.6L589 166.6zM589 536.6L621.04 555.1L621.04 592.1L589 610.6L556.96 592.1L556.96 555.1zM589 758.6L621.04 777.1L621.04 814.1L589 832.6L556.96 814.1L556.96 777.1zM621.04 1036.1L653.09 1054.6L653.09 1091.6L621.04 1110.1L589 1091.6L589 1054.6zM621.04 1147.1L653.09 1165.6L653.09 1202.6L621.04 1221.1L589 1202.6L589 1165.6zM653.09 92.6L685.13 111.1L685.13 148.1L653.09 166.6L621.04 148.1L621.04 111.1zM653.09 425.6L685.13 444.1L685.13 481.1L653.09 499.6L621.04 481.1L621.04 444.1zM685.13 481.1L717.17 499.6L717.17 536.6L685.13 555.1L653.09 536.6L653.09 499.6zM653.09 536.6L685.13 555.1L685.13 592.1L653.09 610.6L621.04 592.1L621.04 555.1zM685.13 703.1L717.17 721.6L717.17 758.6L685.13 777.1L653.09 758.6L653.09 721.6zM653.09 980.6L685.13 999.1L685.13 1036.1L653.09 1054.6L621.04 1036.1L621.04 999.1zM749.22 37.1L781.26 55.6L781.26 92.6L749.22 111.1L717.17 92.6L717.17 55.6zM717.17 203.6L749.22 222.1L749.22 259.1L717.17 277.6L685.13 259.1L685.13 222.1zM717.17 314.6L749.22 333.1L749.22 370.1L717.17 388.6L685.13 370.1L685.13 333.1zM717.17 425.6L749.22 444.1L749.22 481.1L717.17 499.6L685.13 481.1L685.13 444.1zM717.17 647.6L749.22 666.1L749.22 703.1L717.17 721.6L685.13 703.1L685.13 666.1zM749.22 814.1L781.26 832.6L781.26 869.6L749.22 888.1L717.17 869.6L717.17 832.6zM717.17 980.6L749.22 999.1L749.22 1036.1L717.17 1054.6L685.13 1036.1L685.13 999.1zM749.22 1036.1L781.26 1054.6L781.26 1091.6L749.22 1110.1L717.17 1091.6L717.17 1054.6zM717.17 1091.6L749.22 1110.1L749.22 1147.1L717.17 1165.6L685.13 1147.1L685.13 1110.1zM749.22 1147.1L781.26 1165.6L781.26 1202.6L749.22 1221.1L717.17 1202.6L717.17 1165.6zM717.17 1202.6L749.22 1221.1L749.22 1258.1L717.17 1276.6L685.13 1258.1L685.13 1221.1zM813.31 37.1L845.35 55.6L845.35 92.6L813.31 111.1L781.26 92.6L781.26 55.6zM813.31 259.1L845.35 277.6L845.35 314.6L813.31 333.1L781.26 314.6L781.26 277.6zM813.31 370.1L845.35 388.6L845.35 425.6L813.31 444.1L781.26 425.6L781.26 388.6zM781.26 425.6L813.31 444.1L813.31 481.1L781.26 499.6L749.22 481.1L749.22 444.1zM813.31 481.1L845.35 499.6L845.35 536.6L813.31 555.1L781.26 536.6L781.26 499.6zM813.31 592.1L845.35 610.6L845.35 647.6L813.31 666.1L781.26 647.6L781.26 610.6zM813.31 703.1L845.35 721.6L845.35 758.6L813.31 777.1L781.26 758.6L781.26 721.6zM781.26 758.6L813.31 777.1L813.31 814.1L781.26 832.6L749.22 814.1L749.22 777.1zM781.26 869.6L813.31 888.1L813.31 925.1L781.26 943.6L749.22 925.1L749.22 888.1zM813.31 925.1L845.35 943.6L845.35 980.6L813.31 999.1L781.26 980.6L781.26 943.6zM813.31 1147.1L845.35 1165.6L845.35 1202.6L813.31 1221.1L781.26 1202.6L781.26 1165.6zM781.26 1202.6L813.31 1221.1L813.31 1258.1L781.26 1276.6L749.22 1258.1L749.22 1221.1zM877.39 37.1L909.44 55.6L909.44 92.6L877.39 111.1L845.35 92.6L845.35 55.6zM845.35 203.6L877.39 222.1L877.39 259.1L845.35 277.6L813.31 259.1L813.31 222.1zM877.39 592.1L909.44 610.6L909.44 647.6L877.39 666.1L845.35 647.6L845.35 610.6zM845.35 758.6L877.39 777.1L877.39 814.1L845.35 832.6L813.31 814.1L813.31 777.1zM845.35 1202.6L877.39 1221.1L877.39 1258.1L845.35 1276.6L813.31 1258.1L813.31 1221.1zM909.44 425.6L941.48 444.1L941.48 481.1L909.44 499.6L877.39 481.1L877.39 444.1zM941.48 481.1L973.53 499.6L973.53 536.6L941.48 555.1L909.44 536.6L909.44 499.6zM909.44 536.6L941.48 555.1L941.48 592.1L909.44 610.6L877.39 592.1L877.39 555.1zM909.44 758.6L941.48 777.1L941.48 814.1L909.44 832.6L877.39 814.1L877.39 777.1zM941.48 925.1L973.53 943.6L973.53 980.6L941.48 999.1L909.44 980.6L909.44 943.6zM909.44 980.6L941.48 999.1L941.48 1036.1L909.44 1054.6L877.39 1036.1L877.39 999.1zM909.44 1202.6L941.48 1221.1L941.48 1258.1L909.44 1276.6L877.39 1258.1L877.39 1221.1zM973.53 536.6L1005.57 555.1L1005.57 592.1L973.53 610.6L941.48 592.1L941.48 555.1zM1005.57 703.1L1037.61 721.6L1037.61 758.6L1005.57 777.1L973.53 758.6L973.53 721.6zM973.53 869.6L1005.57 888.1L1005.57 925.1L973.53 943.6L941.48 925.1L941.48 888.1zM1069.66 925.1L1101.7 943.6L1101.7 980.6L1069.66 999.1L1037.61 980.6L1037.61 943.6zM1069.66 1036.1L1101.7 1054.6L1101.7 1091.6L1069.66 1110.1L1037.61 1091.6L1037.61 1054.6zM1037.61 1091.6L1069.66 1110.1L1069.66 1147.1L1037.61 1165.6L1005.57 1147.1L1005.57 1110.1zM1101.7 92.6L1133.74 111.1L1133.74 148.1L1101.7 166.6L1069.66 148.1L1069.66 111.1zM1133.74 481.1L1165.79 499.6L1165.79 536.6L1133.74 555.1L1101.7 536.6L1101.7 499.6zM1133.74 592.1L1165.79 610.6L1165.79 647.6L1133.74 666.1L1101.7 647.6L1101.7 610.6zM1133.74 703.1L1165.79 721.6L1165.79 758.6L1133.74 777.1L1101.7 758.6L1101.7 721.6zM1101.7 758.6L1133.74 777.1L1133.74 814.1L1101.7 832.6L1069.66 814.1L1069.66 777.1zM1101.7 869.6L1133.74 888.1L1133.74 925.1L1101.7 943.6L1069.66 925.1L1069.66 888.1zM1101.7 1091.6L1133.74 1110.1L1133.74 1147.1L1101.7 1165.6L1069.66 1147.1L1069.66 1110.1zM1101.7 1202.6L1133.74 1221.1L1133.74 1258.1L1101.7 1276.6L1069.66 1258.1L1069.66 1221.1zM1197.83 259.1L1229.88 277.6L1229.88 314.6L1197.83 333.1L1165.79 314.6L1165.79 277.6zM1165.79 314.6L1197.83 333.1L1197.83 370.1L1165.79 388.6L1133.74 370.1L1133.74 333.1zM1197.83 481.1L1229.88 499.6L1229.88 536.6L1197.83 555.1L1165.79 536.6L1165.79 499.6zM1165.79 1091.6L1197.83 1110.1L1197.83 1147.1L1165.79 1165.6L1133.74 1147.1L1133.74 1110.1zM1197.83 1147.1L1229.88 1165.6L1229.88 1202.6L1197.83 1221.1L1165.79 1202.6L1165.79 1165.6zM1165.79 1202.6L1197.83 1221.1L1197.83 1258.1L1165.79 1276.6L1133.74 1258.1L1133.74 1221.1zM1229.88 -18.4L1261.92 0.1L1261.92 37.1L1229.88 55.6L1197.83 37.1L1197.83 0.1zM1229.88 92.6L1261.92 111.1L1261.92 148.1L1229.88 166.6L1197.83 148.1L1197.83 111.1zM1261.92 259.1L1293.96 277.6L1293.96 314.6L1261.92 333.1L1229.88 314.6L1229.88 277.6zM1229.88 314.6L1261.92 333.1L1261.92 370.1L1229.88 388.6L1197.83 370.1L1197.83 333.1zM1229.88 758.6L1261.92 777.1L1261.92 814.1L1229.88 832.6L1197.83 814.1L1197.83 777.1zM1229.88 1202.6L1261.92 1221.1L1261.92 1258.1L1229.88 1276.6L1197.83 1258.1L1197.83 1221.1zM1326.01 259.1L1358.05 277.6L1358.05 314.6L1326.01 333.1L1293.96 314.6L1293.96 277.6zM1293.96 314.6L1326.01 333.1L1326.01 370.1L1293.96 388.6L1261.92 370.1L1261.92 333.1zM1293.96 425.6L1326.01 444.1L1326.01 481.1L1293.96 499.6L1261.92 481.1L1261.92 444.1zM1326.01 481.1L1358.05 499.6L1358.05 536.6L1326.01 555.1L1293.96 536.6L1293.96 499.6zM1293.96 536.6L1326.01 555.1L1326.01 592.1L1293.96 610.6L1261.92 592.1L1261.92 555.1zM1326.01 814.1L1358.05 832.6L1358.05 869.6L1326.01 888.1L1293.96 869.6L1293.96 832.6zM1390.1 37.1L1422.14 55.6L1422.14 92.6L1390.1 111.1L1358.05 92.6L1358.05 55.6zM1390.1 148.1L1422.14 166.6L1422.14 203.6L1390.1 222.1L1358.05 203.6L1358.05 166.6zM1390.1 370.1L1422.14 388.6L1422.14 425.6L1390.1 444.1L1358.05 425.6L1358.05 388.6zM1390.1 481.1L1422.14 499.6L1422.14 536.6L1390.1 555.1L1358.05 536.6L1358.05 499.6zM1358.05 758.6L1390.1 777.1L1390.1 814.1L1358.05 832.6L1326.01 814.1L1326.01 777.1zM1358.05 980.6L1390.1 999.1L1390.1 1036.1L1358.05 1054.6L1326.01 1036.1L1326.01 999.1zM1390.1 1147.1L1422.14 1165.6L1422.14 1202.6L1390.1 1221.1L1358.05 1202.6L1358.05 1165.6zM1422.14 92.6L1454.18 111.1L1454.18 148.1L1422.14 166.6L1390.1 148.1L1390.1 111.1zM1422.14 536.6L1454.18 555.1L1454.18 592.1L1422.14 610.6L1390.1 592.1L1390.1 555.1zM1454.18 703.1L1486.23 721.6L1486.23 758.6L1454.18 777.1L1422.14 758.6L1422.14 721.6zM1486.23 92.6L1518.27 111.1L1518.27 148.1L1486.23 166.6L1454.18 148.1L1454.18 111.1zM1486.23 203.6L1518.27 222.1L1518.27 259.1L1486.23 277.6L1454.18 259.1L1454.18 222.1zM1486.23 425.6L1518.27 444.1L1518.27 481.1L1486.23 499.6L1454.18 481.1L1454.18 444.1zM1518.27 481.1L1550.31 499.6L1550.31 536.6L1518.27 555.1L1486.23 536.6L1486.23 499.6zM1518.27 703.1L1550.31 721.6L1550.31 758.6L1518.27 777.1L1486.23 758.6L1486.23 721.6zM1486.23 1202.6L1518.27 1221.1L1518.27 1258.1L1486.23 1276.6L1454.18 1258.1L1454.18 1221.1zM1582.36 148.1L1614.4 166.6L1614.4 203.6L1582.36 222.1L1550.31 203.6L1550.31 166.6zM1550.31 203.6L1582.36 222.1L1582.36 259.1L1550.31 277.6L1518.27 259.1L1518.27 222.1zM1550.31 758.6L1582.36 777.1L1582.36 814.1L1550.31 832.6L1518.27 814.1L1518.27 777.1zM1646.45 37.1L1678.49 55.6L1678.49 92.6L1646.45 111.1L1614.4 92.6L1614.4 55.6zM1646.45 259.1L1678.49 277.6L1678.49 314.6L1646.45 333.1L1614.4 314.6L1614.4 277.6zM1646.45 370.1L1678.49 388.6L1678.49 425.6L1646.45 444.1L1614.4 425.6L1614.4 388.6zM1646.45 481.1L1678.49 499.6L1678.49 536.6L1646.45 555.1L1614.4 536.6L1614.4 499.6zM1614.4 647.6L1646.45 666.1L1646.45 703.1L1614.4 721.6L1582.36 703.1L1582.36 666.1zM1614.4 758.6L1646.45 777.1L1646.45 814.1L1614.4 832.6L1582.36 814.1L1582.36 777.1zM1646.45 925.1L1678.49 943.6L1678.49 980.6L1646.45 999.1L1614.4 980.6L1614.4 943.6zM1614.4 980.6L1646.45 999.1L1646.45 1036.1L1614.4 1054.6L1582.36 1036.1L1582.36 999.1zM1678.49 -18.4L1710.53 0.1L1710.53 37.1L1678.49 55.6L1646.45 37.1L1646.45 0.1zM1710.53 370.1L1742.58 388.6L1742.58 425.6L1710.53 444.1L1678.49 425.6L1678.49 388.6zM1710.53 481.1L1742.58 499.6L1742.58 536.6L1710.53 555.1L1678.49 536.6L1678.49 499.6zM1678.49 536.6L1710.53 555.1L1710.53 592.1L1678.49 610.6L1646.45 592.1L1646.45 555.1zM1710.53 592.1L1742.58 610.6L1742.58 647.6L1710.53 666.1L1678.49 647.6L1678.49 610.6zM1710.53 925.1L1742.58 943.6L1742.58 980.6L1710.53 999.1L1678.49 980.6L1678.49 943.6zM1742.58 -18.4L1774.62 0.1L1774.62 37.1L1742.58 55.6L1710.53 37.1L1710.53 0.1zM1774.62 37.1L1806.67 55.6L1806.67 92.6L1774.62 111.1L1742.58 92.6L1742.58 55.6zM1742.58 92.6L1774.62 111.1L1774.62 148.1L1742.58 166.6L1710.53 148.1L1710.53 111.1zM1742.58 425.6L1774.62 444.1L1774.62 481.1L1742.58 499.6L1710.53 481.1L1710.53 444.1zM1774.62 592.1L1806.67 610.6L1806.67 647.6L1774.62 666.1L1742.58 647.6L1742.58 610.6zM1774.62 814.1L1806.67 832.6L1806.67 869.6L1774.62 888.1L1742.58 869.6L1742.58 832.6zM1774.62 925.1L1806.67 943.6L1806.67 980.6L1774.62 999.1L1742.58 980.6L1742.58 943.6zM1742.58 1202.6L1774.62 1221.1L1774.62 1258.1L1742.58 1276.6L1710.53 1258.1L1710.53 1221.1zM1806.67 92.6L1838.71 111.1L1838.71 148.1L1806.67 166.6L1774.62 148.1L1774.62 111.1zM1838.71 259.1L1870.75 277.6L1870.75 314.6L1838.71 333.1L1806.67 314.6L1806.67 277.6zM1838.71 370.1L1870.75 388.6L1870.75 425.6L1838.71 444.1L1806.67 425.6L1806.67 388.6zM1806.67 647.6L1838.71 666.1L1838.71 703.1L1806.67 721.6L1774.62 703.1L1774.62 666.1zM1838.71 814.1L1870.75 832.6L1870.75 869.6L1838.71 888.1L1806.67 869.6L1806.67 832.6zM1806.67 980.6L1838.71 999.1L1838.71 1036.1L1806.67 1054.6L1774.62 1036.1L1774.62 999.1zM1902.8 148.1L1934.84 166.6L1934.84 203.6L1902.8 222.1L1870.75 203.6L1870.75 166.6zM1902.8 370.1L1934.84 388.6L1934.84 425.6L1902.8 444.1L1870.75 425.6L1870.75 388.6zM1902.8 592.1L1934.84 610.6L1934.84 647.6L1902.8 666.1L1870.75 647.6L1870.75 610.6zM1870.75 758.6L1902.8 777.1L1902.8 814.1L1870.75 832.6L1838.71 814.1L1838.71 777.1zM1902.8 1147.1L1934.84 1165.6L1934.84 1202.6L1902.8 1221.1L1870.75 1202.6L1870.75 1165.6zM1966.88 370.1L1998.93 388.6L1998.93 425.6L1966.88 444.1L1934.84 425.6L1934.84 388.6zM1934.84 425.6L1966.88 444.1L1966.88 481.1L1934.84 499.6L1902.8 481.1L1902.8 444.1z" stroke="rgba(6, 80, 156, 0.93)" stroke-width="2"></path></g><defs><mask id="SvgjsMask2365"><rect width="1936" height="1242" fill="#ffffff"></rect></mask></defs></svg>